<svg width="70" height="70" viewBox="0 0 70 70" fill="none" xmlns="http://www.w3.org/2000/svg">
<path d="M50 0H20C8.9543 0 0 8.9543 0 20V50C0 61.0457 8.9543 70 20 70H50C61.0457 70 70 61.0457 70 50V20C70 8.9543 61.0457 0 50 0Z" fill="#7D4343" fill-opacity="0.58"/>
<path d="M54.0729 34.0834H17.1771C15.9747 34.0834 15 34.8986 15 35.9042V36.0959C15 37.1015 15.9747 37.9167 17.1771 37.9167H54.0729C55.2753 37.9167 56.25 37.1015 56.25 36.0959V35.9042C56.25 34.8986 55.2753 34.0834 54.0729 34.0834Z" fill="#231F20"/>
<path d="M54.0729 43.6666H17.1771C15.9747 43.6666 15 44.4818 15 45.4875V45.6791C15 46.6847 15.9747 47.5 17.1771 47.5H54.0729C55.2753 47.5 56.25 46.6847 56.25 45.6791V45.4875C56.25 44.4818 55.2753 43.6666 54.0729 43.6666Z" fill="#231F20"/>
<path d="M54.0729 24.5H17.1771C15.9747 24.5 15 25.3152 15 26.3208V26.5125C15 27.5181 15.9747 28.3333 17.1771 28.3333H54.0729C55.2753 28.3333 56.25 27.5181 56.25 26.5125V26.3208C56.25 25.3152 55.2753 24.5 54.0729 24.5Z" fill="#231F20"/>
</svg>

